<?xml version="1.0" encoding="UTF-8"?>
<svg xmlns="http://www.w3.org/2000/svg" xmlns:xlink="http://www.w3.org/1999/xlink" width="375pt" height="374.999991pt" viewBox="0 0 375 374.999991" version="1.2">
<g id="surface1">
<path style=" stroke:none;fill-rule:nonzero;fill:rgb(44.309998%,60.778809%,84.709167%);fill-opacity:1;" d="M 331.25 93.75 L 43.75 93.75 C 29.929688 93.75 18.75 104.929688 18.75 118.75 L 18.75 293.75 C 18.75 307.566406 29.929688 318.75 43.75 318.75 L 331.25 318.75 C 345.066406 318.75 356.25 307.566406 356.25 293.75 L 356.25 118.75 C 356.25 104.929688 345.066406 93.75 331.25 93.75 "/>
<path style=" stroke:none;fill-rule:nonzero;fill:rgb(32.159424%,47.839355%,77.648926%);fill-opacity:1;" d="M 331.25 93.75 L 318.75 93.75 C 332.566406 93.75 343.75 104.929688 343.75 118.75 L 343.75 293.75 C 343.75 307.566406 332.566406 318.75 318.75 318.75 L 331.25 318.75 C 345.066406 318.75 356.25 307.566406 356.25 293.75 L 356.25 118.75 C 356.25 104.929688 345.066406 93.75 331.25 93.75 "/>
<path style=" stroke:none;fill-rule:nonzero;fill:rgb(23.139954%,35.688782%,69.799805%);fill-opacity:1;" d="M 43.75 318.75 L 6.25 318.75 L 6.25 343.75 C 6.25 357.542969 17.457031 368.75 31.25 368.75 L 343.75 368.75 C 357.566406 368.75 368.75 357.542969 368.75 343.75 L 368.75 318.75 L 43.75 318.75 "/>
<path style=" stroke:none;fill-rule:nonzero;fill:rgb(16.859436%,30.198669%,65.489197%);fill-opacity:1;" d="M 356.25 318.75 L 356.25 343.75 C 356.25 357.542969 345.066406 368.75 331.25 368.75 L 343.75 368.75 C 357.566406 368.75 368.75 357.542969 368.75 343.75 L 368.75 318.75 L 356.25 318.75 "/>
<path style=" stroke:none;fill-rule:nonzero;fill:rgb(98.039246%,79.60968%,2.749634%);fill-opacity:1;" d="M 156.25 331.25 C 156.25 338.160156 161.839844 343.75 168.75 343.75 L 206.25 343.75 C 213.160156 343.75 218.75 338.160156 218.75 331.25 L 218.75 318.75 L 156.25 318.75 L 156.25 331.25 "/>
<path style=" stroke:none;fill-rule:nonzero;fill:rgb(98.81897%,83.918762%,60.778809%);fill-opacity:1;" d="M 331.25 293.75 L 43.75 293.75 L 43.75 118.75 L 331.25 118.75 L 331.25 293.75 "/>
<path style=" stroke:none;fill-rule:nonzero;fill:rgb(98.039246%,79.60968%,2.749634%);fill-opacity:1;" d="M 256.25 6.25 L 118.75 6.25 C 104.929688 6.25 93.75 17.429688 93.75 31.25 L 93.75 100 C 93.75 113.816406 104.929688 125 118.75 125 L 137.5 125 L 137.5 168.75 L 175 125 L 256.25 125 C 270.066406 125 281.25 113.816406 281.25 100 L 281.25 31.25 C 281.25 17.429688 270.066406 6.25 256.25 6.25 "/>
<path style=" stroke:none;fill-rule:nonzero;fill:rgb(98.039246%,74.119568%,37.649536%);fill-opacity:1;" d="M 150 293.75 L 331.25 293.75 L 331.25 118.75 C 331.25 222.386719 250.195312 293.75 150 293.75 "/>
<path style=" stroke:none;fill-rule:nonzero;fill:rgb(6.269836%,5.879211%,5.099487%);fill-opacity:1;" d="M 362.5 343.75 C 362.5 354.101562 354.101562 362.5 343.75 362.5 L 31.25 362.5 C 20.898438 362.5 12.5 354.101562 12.5 343.75 L 12.5 325 L 150 325 L 150 331.25 C 150 341.601562 158.398438 350 168.75 350 L 206.25 350 C 216.601562 350 225 341.601562 225 331.25 L 225 325 L 362.5 325 Z M 162.5 325 L 212.5 325 L 212.5 331.25 C 212.5 334.691406 209.691406 337.5 206.25 337.5 L 168.75 337.5 C 165.308594 337.5 162.5 334.691406 162.5 331.25 Z M 25 293.75 L 25 118.75 C 25 108.398438 33.398438 100 43.75 100 L 87.5 100 C 87.5 117.234375 101.511719 131.25 118.75 131.25 L 131.25 131.25 L 131.25 168.75 C 131.25 171.363281 132.886719 173.707031 135.328125 174.609375 C 136.035156 174.878906 136.765625 175 137.5 175 C 139.28125 175 141.039062 174.242188 142.234375 172.828125 L 177.878906 131.25 L 256.25 131.25 C 273.484375 131.25 287.5 117.234375 287.5 100 L 331.25 100 C 341.601562 100 350 108.398438 350 118.75 L 350 293.75 C 350 304.101562 341.601562 312.5 331.25 312.5 L 43.75 312.5 C 33.398438 312.5 25 304.101562 25 293.75 Z M 100 31.25 C 100 20.898438 108.398438 12.5 118.75 12.5 L 256.25 12.5 C 266.601562 12.5 275 20.898438 275 31.25 L 275 100 C 275 110.351562 266.601562 118.75 256.25 118.75 L 175 118.75 C 173.167969 118.75 171.433594 119.554688 170.261719 120.921875 L 143.75 151.855469 L 143.75 125 C 143.75 121.558594 140.941406 118.75 137.5 118.75 L 118.75 118.75 C 108.398438 118.75 100 110.351562 100 100 Z M 368.75 312.5 L 356.078125 312.5 C 360.058594 307.25 362.5 300.804688 362.5 293.75 L 362.5 118.75 C 362.5 101.511719 348.484375 87.5 331.25 87.5 L 287.5 87.5 L 287.5 31.25 C 287.5 14.015625 273.484375 0 256.25 0 L 118.75 0 C 101.511719 0 87.5 14.015625 87.5 31.25 L 87.5 87.5 L 43.75 87.5 C 26.515625 87.5 12.5 101.511719 12.5 118.75 L 12.5 293.75 C 12.5 300.804688 14.941406 307.25 18.898438 312.5 L 6.25 312.5 C 2.808594 312.5 0 315.308594 0 318.75 L 0 343.75 C 0 360.984375 14.015625 375 31.25 375 L 343.75 375 C 360.984375 375 375 360.984375 375 343.75 L 375 318.75 C 375 315.308594 372.191406 312.5 368.75 312.5 "/>
<path style=" stroke:none;fill-rule:nonzero;fill:rgb(6.269836%,5.879211%,5.099487%);fill-opacity:1;" d="M 337.5 293.75 L 337.5 118.75 C 337.5 115.308594 334.691406 112.5 331.25 112.5 L 300 112.5 C 296.558594 112.5 293.75 115.308594 293.75 118.75 C 293.75 122.191406 296.558594 125 300 125 L 325 125 L 325 287.5 L 50 287.5 L 50 125 L 75 125 C 78.441406 125 81.25 122.191406 81.25 118.75 C 81.25 115.308594 78.441406 112.5 75 112.5 L 43.75 112.5 C 40.308594 112.5 37.5 115.308594 37.5 118.75 L 37.5 293.75 C 37.5 297.191406 40.308594 300 43.75 300 L 331.25 300 C 334.691406 300 337.5 297.191406 337.5 293.75 "/>
<path style=" stroke:none;fill-rule:nonzero;fill:rgb(6.269836%,5.879211%,5.099487%);fill-opacity:1;" d="M 75 168.75 C 75 172.191406 77.808594 175 81.25 175 L 93.75 175 C 97.191406 175 100 172.191406 100 168.75 C 100 165.308594 97.191406 162.5 93.75 162.5 L 81.25 162.5 C 77.808594 162.5 75 165.308594 75 168.75 "/>
<path style=" stroke:none;fill-rule:nonzero;fill:rgb(6.269836%,5.879211%,5.099487%);fill-opacity:1;" d="M 93.75 187.5 L 81.25 187.5 C 77.808594 187.5 75 190.308594 75 193.75 C 75 197.191406 77.808594 200 81.25 200 L 93.75 200 C 97.191406 200 100 197.191406 100 193.75 C 100 190.308594 97.191406 187.5 93.75 187.5 "/>
<path style=" stroke:none;fill-rule:nonzero;fill:rgb(6.269836%,5.879211%,5.099487%);fill-opacity:1;" d="M 93.75 212.5 L 81.25 212.5 C 77.808594 212.5 75 215.308594 75 218.75 C 75 222.191406 77.808594 225 81.25 225 L 93.75 225 C 97.191406 225 100 222.191406 100 218.75 C 100 215.308594 97.191406 212.5 93.75 212.5 "/>
<path style=" stroke:none;fill-rule:nonzero;fill:rgb(6.269836%,5.879211%,5.099487%);fill-opacity:1;" d="M 93.75 237.5 L 81.25 237.5 C 77.808594 237.5 75 240.308594 75 243.75 C 75 247.191406 77.808594 250 81.25 250 L 93.75 250 C 97.191406 250 100 247.191406 100 243.75 C 100 240.308594 97.191406 237.5 93.75 237.5 "/>
<path style=" stroke:none;fill-rule:nonzero;fill:rgb(6.269836%,5.879211%,5.099487%);fill-opacity:1;" d="M 93.75 262.5 L 81.25 262.5 C 77.808594 262.5 75 265.308594 75 268.75 C 75 272.191406 77.808594 275 81.25 275 L 93.75 275 C 97.191406 275 100 272.191406 100 268.75 C 100 265.308594 97.191406 262.5 93.75 262.5 "/>
<path style=" stroke:none;fill-rule:nonzero;fill:rgb(6.269836%,5.879211%,5.099487%);fill-opacity:1;" d="M 175 175 L 293.75 175 C 297.191406 175 300 172.191406 300 168.75 C 300 165.308594 297.191406 162.5 293.75 162.5 L 175 162.5 C 171.558594 162.5 168.75 165.308594 168.75 168.75 C 168.75 172.191406 171.558594 175 175 175 "/>
<path style=" stroke:none;fill-rule:nonzero;fill:rgb(6.269836%,5.879211%,5.099487%);fill-opacity:1;" d="M 168.75 200 L 268.75 200 C 272.191406 200 275 197.191406 275 193.75 C 275 190.308594 272.191406 187.5 268.75 187.5 L 168.75 187.5 C 165.308594 187.5 162.5 190.308594 162.5 193.75 C 162.5 197.191406 165.308594 200 168.75 200 "/>
<path style=" stroke:none;fill-rule:nonzero;fill:rgb(6.269836%,5.879211%,5.099487%);fill-opacity:1;" d="M 118.75 225 L 193.75 225 C 197.191406 225 200 222.191406 200 218.75 C 200 215.308594 197.191406 212.5 193.75 212.5 L 118.75 212.5 C 115.308594 212.5 112.5 215.308594 112.5 218.75 C 112.5 222.191406 115.308594 225 118.75 225 "/>
<path style=" stroke:none;fill-rule:nonzero;fill:rgb(6.269836%,5.879211%,5.099487%);fill-opacity:1;" d="M 118.75 250 L 193.75 250 C 197.191406 250 200 247.191406 200 243.75 C 200 240.308594 197.191406 237.5 193.75 237.5 L 118.75 237.5 C 115.308594 237.5 112.5 240.308594 112.5 243.75 C 112.5 247.191406 115.308594 250 118.75 250 "/>
<path style=" stroke:none;fill-rule:nonzero;fill:rgb(6.269836%,5.879211%,5.099487%);fill-opacity:1;" d="M 118.75 275 L 193.75 275 C 197.191406 275 200 272.191406 200 268.75 C 200 265.308594 197.191406 262.5 193.75 262.5 L 118.75 262.5 C 115.308594 262.5 112.5 265.308594 112.5 268.75 C 112.5 272.191406 115.308594 275 118.75 275 "/>
<path style=" stroke:none;fill-rule:nonzero;fill:rgb(6.269836%,5.879211%,5.099487%);fill-opacity:1;" d="M 115.28125 67.699219 L 152.78125 92.699219 C 153.855469 93.40625 155.054688 93.75 156.25 93.75 C 158.277344 93.75 160.253906 92.773438 161.449219 90.964844 C 163.378906 88.085938 162.597656 84.203125 159.714844 82.300781 L 131.175781 63.28125 L 159.058594 49.339844 C 162.132812 47.804688 163.378906 44.042969 161.839844 40.941406 C 160.300781 37.867188 156.542969 36.621094 153.441406 38.160156 L 115.941406 56.910156 C 113.964844 57.910156 112.644531 59.886719 112.523438 62.109375 C 112.378906 64.332031 113.425781 66.453125 115.28125 67.699219 "/>
<path style=" stroke:none;fill-rule:nonzero;fill:rgb(6.269836%,5.879211%,5.099487%);fill-opacity:1;" d="M 215.941406 49.339844 L 243.824219 63.28125 L 215.28125 82.300781 C 212.402344 84.203125 211.621094 88.085938 213.550781 90.964844 C 214.746094 92.773438 216.722656 93.75 218.75 93.75 C 219.945312 93.75 221.140625 93.40625 222.214844 92.699219 L 259.714844 67.699219 C 261.570312 66.453125 262.621094 64.332031 262.476562 62.109375 C 262.351562 59.886719 261.035156 57.910156 259.058594 56.910156 L 221.558594 38.160156 C 218.457031 36.621094 214.695312 37.867188 213.160156 40.941406 C 211.621094 44.042969 212.867188 47.804688 215.941406 49.339844 "/>
<path style=" stroke:none;fill-rule:nonzero;fill:rgb(6.269836%,5.879211%,5.099487%);fill-opacity:1;" d="M 172.851562 105.882812 C 173.582031 106.128906 174.292969 106.25 175 106.25 C 177.539062 106.25 179.957031 104.664062 180.882812 102.148438 L 205.882812 33.398438 C 207.054688 30.152344 205.371094 26.5625 202.148438 25.367188 C 198.902344 24.195312 195.3125 25.878906 194.117188 29.101562 L 169.117188 97.851562 C 167.945312 101.097656 169.628906 104.6875 172.851562 105.882812 "/>
<path style=" stroke:none;fill-rule:nonzero;fill:rgb(6.269836%,5.879211%,5.099487%);fill-opacity:1;" d="M 118.75 200 L 143.75 200 C 147.191406 200 150 197.191406 150 193.75 C 150 190.308594 147.191406 187.5 143.75 187.5 L 118.75 187.5 C 115.308594 187.5 112.5 190.308594 112.5 193.75 C 112.5 197.191406 115.308594 200 118.75 200 "/>
<path style=" stroke:none;fill-rule:nonzero;fill:rgb(6.269836%,5.879211%,5.099487%);fill-opacity:1;" d="M 275 218.75 C 275 215.308594 272.191406 212.5 268.75 212.5 L 218.75 212.5 C 215.308594 212.5 212.5 215.308594 212.5 218.75 C 212.5 222.191406 215.308594 225 218.75 225 L 268.75 225 C 272.191406 225 275 222.191406 275 218.75 "/>
<path style=" stroke:none;fill-rule:nonzero;fill:rgb(6.269836%,5.879211%,5.099487%);fill-opacity:1;" d="M 231.25 237.5 L 218.75 237.5 C 215.308594 237.5 212.5 240.308594 212.5 243.75 C 212.5 247.191406 215.308594 250 218.75 250 L 231.25 250 C 234.691406 250 237.5 247.191406 237.5 243.75 C 237.5 240.308594 234.691406 237.5 231.25 237.5 "/>
<path style=" stroke:none;fill-rule:nonzero;fill:rgb(6.269836%,5.879211%,5.099487%);fill-opacity:1;" d="M 231.25 262.5 L 218.75 262.5 C 215.308594 262.5 212.5 265.308594 212.5 268.75 C 212.5 272.191406 215.308594 275 218.75 275 L 231.25 275 C 234.691406 275 237.5 272.191406 237.5 268.75 C 237.5 265.308594 234.691406 262.5 231.25 262.5 "/>
</g>
</svg>
